<svg width="25" height="24" viewBox="0 0 25 24" xmlns="http://www.w3.org/2000/svg">
<path d="M12.6622 11.6199C12.6322 11.6199 12.6122 11.6199 12.5822 11.6199C12.5322 11.6099 12.4622 11.6099 12.4022 11.6199C9.50216 11.5299 7.31216 9.24994 7.31216 6.43994C7.31216 3.57994 9.64216 1.24994 12.5022 1.24994C15.3622 1.24994 17.6922 3.57994 17.6922 6.43994C17.6822 9.24994 15.4822 11.5299 12.6922 11.6199C12.6822 11.6199 12.6722 11.6199 12.6622 11.6199ZM12.5022 2.74994C10.4722 2.74994 8.81216 4.40994 8.81216 6.43994C8.81216 8.43994 10.3722 10.0499 12.3622 10.1199C12.4122 10.1099 12.5522 10.1099 12.6822 10.1199C14.6422 10.0299 16.1822 8.41994 16.1922 6.43994C16.1922 4.40994 14.5322 2.74994 12.5022 2.74994Z"/>
<path d="M12.6722 22.5501C10.7122 22.5501 8.74223 22.0501 7.25223 21.0501C5.86223 20.1301 5.10223 18.8701 5.10223 17.5001C5.10223 16.1301 5.86223 14.8601 7.25223 13.9301C10.2522 11.9401 15.1122 11.9401 18.0922 13.9301C19.4722 14.8501 20.2422 16.1101 20.2422 17.4801C20.2422 18.8501 19.4822 20.1201 18.0922 21.0501C16.5922 22.0501 14.6322 22.5501 12.6722 22.5501ZM8.08223 15.1901C7.12223 15.8301 6.60223 16.6501 6.60223 17.5101C6.60223 18.3601 7.13223 19.1801 8.08223 19.8101C10.5722 21.4801 14.7722 21.4801 17.2622 19.8101C18.2222 19.1701 18.7422 18.3501 18.7422 17.4901C18.7422 16.6401 18.2122 15.8201 17.2622 15.1901C14.7722 13.5301 10.5722 13.5301 8.08223 15.1901Z"/>
</svg>